# xmcd
#
# Track frame offsets: 
#        150
#        12776
#        26149
#        37198
#        52984
#        65823
#        79172
#        94534
#        108196
#        120653
#        136497
#        150622
#        169783
#        185562
#        200195
#        214522
#        228145
#        247830
#        261577
#        280878
#
# Disc length: 3912 seconds
#
# Revision: 0
# Processed by: cddbd v1.5.2PL0 Copyright (c) Steve Scherf et al.
# Submitted via: ExactAudioCopyFreeDBPlugin 1.0
#
DISCID=1a0f4614
DTITLE=Natalie Cole - Inseparable and Natalie
DYEAR=1975
DGENRE=R&B
TTITLE0=Needing You
TTITLE1=Joey
TTITLE2=Inseparable
TTITLE3=I Can't Say No
TTITLE4=This Will Be
TTITLE5=Something For Nothing
TTITLE6=I Love Him So Much
TTITLE7=How Come You Won't Stay Here
TTITLE8=Your Face Stays In My Mind
TTITLE9=You
TTITLE10=Mr. Melody
TTITLE11=Heaven Is With You
TTITLE12=Sophisticated Lady (She's A Different Lady)
TTITLE13=No Plans For The Future
TTITLE14=Can We Get Together Again
TTITLE15=Keep Smiling
TTITLE16=Good Morning Heartache
TTITLE17=Not Like Mine
TTITLE18=Touch Me
TTITLE19=Hard To Get Along
EXTD=
EXTT0=
EXTT1=
EXTT2=
EXTT3=
EXTT4=
EXTT5=
EXTT6=
EXTT7=
EXTT8=
EXTT9=
EXTT10=
EXTT11=
EXTT12=
EXTT13=
EXTT14=
EXTT15=
EXTT16=
EXTT17=
EXTT18=
EXTT19=
PLAYORDER=
